<?xml version="1.0" standalone="no"?>
<!DOCTYPE svg PUBLIC "-//W3C//DTD SVG 20010904//EN"
 "http://www.w3.org/TR/2001/REC-SVG-20010904/DTD/svg10.dtd">
<svg version="1.0" xmlns="http://www.w3.org/2000/svg"
 width="1556.000000pt" height="1556.000000pt" viewBox="0 0 1556.000000 1556.000000"
 preserveAspectRatio="xMidYMid meet">
<metadata>
Created by potrace 1.11, written by Peter Selinger 2001-2013
</metadata>
<g transform="translate(0.000000,1556.000000) scale(0.100000,-0.100000)"
fill="#000000" stroke="none">
<path d="M7788 14355 c-2 -1 -52 -5 -113 -9 -60 -3 -135 -8 -165 -11 -30 -2
-80 -7 -110 -9 -30 -3 -71 -7 -90 -10 -19 -3 -57 -8 -85 -11 -74 -9 -118 -15
-140 -20 -11 -2 -42 -7 -70 -10 -165 -21 -550 -108 -795 -180 -215 -63 -534
-175 -658 -231 -29 -13 -54 -24 -56 -24 -2 0 -25 -10 -52 -22 -27 -12 -51 -23
-54 -23 -59 -16 -483 -237 -708 -370 -180 -106 -496 -324 -657 -454 -38 -31
-78 -63 -89 -71 -68 -54 -266 -227 -345 -301 -83 -79 -92 -91 -80 -106 8 -9
47 -50 88 -92 61 -64 628 -645 699 -717 12 -13 22 -25 22 -28 0 -2 -30 -35
-67 -73 -303 -309 -571 -652 -767 -983 -31 -52 -61 -102 -66 -110 -27 -43
-144 -268 -189 -362 -28 -60 -55 -108 -60 -108 -8 0 -83 33 -219 96 -41 19
-75 34 -77 34 -2 0 -46 20 -99 45 -53 25 -99 45 -101 45 -3 0 -40 16 -82 36
-43 19 -87 39 -98 44 -11 5 -55 25 -98 45 -43 19 -80 35 -82 35 -2 0 -51 23
-110 50 -59 28 -108 50 -110 50 -13 0 -163 -374 -233 -585 -46 -137 -134 -435
-146 -495 -3 -14 -7 -35 -10 -47 -4 -13 -8 -31 -10 -40 -2 -10 -10 -40 -16
-68 -7 -27 -14 -59 -16 -70 -2 -11 -17 -92 -33 -179 -17 -88 -33 -180 -36
-205 -3 -25 -7 -55 -9 -66 -2 -11 -7 -49 -12 -85 -4 -36 -8 -67 -9 -70 -1 -3
-5 -43 -9 -90 -5 -47 -10 -98 -12 -115 -25 -257 -25 -861 1 -1120 2 -22 7 -62
9 -90 11 -108 32 -275 40 -321 2 -10 9 -55 16 -100 15 -91 4 -84 110 -65 30 6
64 12 75 14 22 5 70 13 125 22 19 3 85 15 145 26 149 27 245 44 410 74 77 14
150 27 162 29 11 3 43 8 70 12 26 5 51 9 56 10 4 1 13 2 21 3 9 1 13 9 11 24
-2 12 -7 36 -10 52 -9 53 -41 301 -50 395 -24 253 -24 786 1 955 2 17 6 55 9
85 6 71 11 113 31 245 6 39 26 156 39 230 37 202 138 563 224 797 43 118 136
347 145 355 2 2 277 -118 381 -167 99 -46 217 -100 220 -100 2 0 36 -15 77
-34 224 -103 350 -158 352 -154 1 2 32 66 70 143 185 376 413 704 714 1024 59
62 107 117 107 122 0 7 -123 135 -635 661 l-140 143 64 60 c299 283 643 537
1010 748 141 81 443 231 566 282 86 35 351 136 370 141 8 2 74 22 145 44 128
41 366 103 435 115 19 3 51 10 70 15 19 5 55 12 80 15 25 4 63 10 85 15 22 5
64 11 94 15 30 4 62 8 71 10 9 2 41 6 71 10 30 3 70 8 89 10 263 33 811 38
1050 10 19 -2 62 -7 95 -10 141 -15 298 -39 521 -81 22 -4 31 18 48 111 3 17
8 39 10 50 6 26 73 339 92 430 8 39 19 86 24 105 5 19 11 48 14 64 3 16 10 52
16 80 6 28 12 61 15 74 2 13 6 31 9 40 3 9 7 28 10 42 2 14 11 55 19 93 8 37
12 69 8 71 -8 6 -242 49 -371 70 -94 15 -152 23 -240 32 -25 2 -58 6 -75 8
-16 3 -70 7 -120 11 -49 3 -110 8 -135 11 -43 6 -686 14 -692 9z"/>
<path d="M9627 14163 c-3 -4 -30 -111 -61 -238 -31 -126 -59 -241 -63 -255 -3
-14 -7 -32 -9 -40 -1 -8 -7 -31 -13 -50 -11 -40 -40 -155 -46 -185 -2 -11 -9
-40 -15 -65 -7 -25 -13 -52 -15 -60 -2 -8 -11 -42 -19 -75 -9 -33 -18 -71 -21
-85 -3 -14 -9 -40 -15 -59 -5 -19 -8 -36 -7 -37 2 -2 27 -10 57 -18 30 -8 82
-22 115 -31 68 -18 285 -88 363 -117 28 -11 52 -24 52 -30 0 -8 -230 -634
-267 -728 -4 -8 -32 -82 -63 -165 l-57 -150 26 -12 c14 -7 76 -33 136 -59 61
-25 176 -79 256 -119 109 -55 149 -71 158 -62 6 6 11 14 11 17 0 4 36 72 81
151 44 79 97 173 116 209 49 89 124 222 167 298 20 35 36 65 36 66 0 1 29 53
65 116 35 63 63 115 62 116 -59 44 -475 241 -662 312 -32 12 -49 24 -47 33 3
15 217 591 232 624 5 11 47 122 93 248 75 201 83 228 68 236 -34 19 -352 122
-511 166 -91 25 -172 48 -182 51 -9 3 -18 1 -21 -3z"/>
<path d="M11243 13518 c-4 -7 -13 -22 -19 -33 -6 -11 -42 -76 -81 -145 -94
-167 -293 -523 -328 -585 -15 -27 -54 -98 -88 -158 -33 -59 -58 -109 -56 -111
2 -1 56 -34 119 -71 158 -94 322 -205 469 -316 68 -52 138 -104 154 -116 17
-12 33 -26 36 -30 3 -5 35 -32 71 -62 128 -105 365 -335 510 -494 51 -55 218
-257 271 -327 l26 -34 179 134 c98 74 184 138 189 143 6 4 136 103 290 218
154 116 284 214 288 218 4 4 -29 55 -74 112 -182 230 -287 347 -524 585 -282
283 -501 470 -806 688 -74 53 -138 99 -144 104 -17 14 -277 177 -345 217 -36
21 -79 46 -97 57 -25 15 -33 16 -40 6z"/>
<path d="M5898 9135 c-2 -2 -28 -6 -58 -9 -207 -25 -447 -139 -592 -280 l-56
-56 0 37 c0 21 0 82 -1 136 l-1 97 -304 0 -303 0 1 -1257 1 -1258 303 -1 302
-1 1 631 c0 347 2 647 4 666 10 101 15 142 24 181 5 24 12 55 14 69 11 57 67
183 110 242 77 108 166 175 282 212 104 33 234 23 331 -25 56 -28 124 -100
157 -165 50 -100 50 -105 53 -954 2 -437 3 -809 4 -826 l0 -31 300 0 300 0 2
681 c1 710 2 739 13 790 3 17 9 45 11 61 18 113 89 250 174 335 114 115 250
167 406 157 200 -14 342 -151 370 -357 2 -19 6 -44 9 -55 2 -11 4 -378 4 -816
l1 -796 301 0 300 0 -4 966 c-3 873 -5 972 -21 1026 -9 33 -18 65 -19 70 -41
145 -137 281 -262 370 -162 115 -334 161 -591 159 -203 -2 -387 -56 -539 -157
-22 -15 -51 -34 -65 -44 -14 -9 -59 -51 -102 -94 l-76 -78 -28 42 c-109 166
-300 283 -524 323 -35 6 -227 13 -232 9z"/>
<path d="M11098 9123 c-6 -29 -3 -1137 4 -1148 5 -8 108 -11 185 -6 7 1 10 16
8 40 l-3 39 45 -34 c64 -49 109 -66 178 -67 77 -1 118 8 176 39 175 95 249
307 195 552 -10 44 -75 150 -113 186 -21 19 -60 48 -88 63 -45 25 -60 28 -145
28 -101 0 -168 -20 -217 -67 -17 -16 -23 -18 -24 -7 0 8 -1 100 -2 204 l-2
190 -96 3 c-86 2 -97 1 -101 -15z m506 -521 c85 -60 117 -195 75 -319 -33
-100 -91 -147 -179 -147 -99 1 -173 62 -196 160 -14 62 -6 178 14 225 21 47
73 98 114 111 47 15 130 0 172 -30z"/>
<path d="M8582 9027 l3 -101 98 -1 97 0 0 102 0 101 -100 0 -101 -1 3 -100z"/>
<path d="M9250 8823 c-152 -13 -286 -103 -350 -238 -82 -174 -47 -399 82 -526
189 -185 517 -139 641 90 l28 50 -23 12 c-13 7 -52 28 -87 47 -51 28 -65 32
-72 21 -5 -8 -9 -19 -9 -25 0 -6 -16 -29 -35 -51 -45 -53 -106 -77 -175 -70
-108 12 -176 97 -184 231 -12 196 116 320 277 267 37 -13 107 -83 107 -108 0
-21 23 -16 108 25 l80 38 -15 33 c-46 95 -172 184 -277 196 -28 4 -52 7 -55 8
-3 2 -22 1 -41 0z"/>
<path d="M10608 8825 c-2 -2 -28 -5 -58 -9 -99 -11 -148 -32 -231 -101 -42
-35 -102 -127 -114 -175 -30 -123 -30 -225 0 -310 65 -185 223 -291 425 -285
245 8 413 187 411 440 -1 191 -96 338 -261 403 -47 19 -164 44 -172 37z m119
-220 c60 -43 95 -112 101 -199 10 -169 -74 -279 -213 -277 -164 2 -264 173
-210 357 30 102 106 155 215 151 54 -2 73 -8 107 -32z"/>
<path d="M12408 8824 c-2 -1 -25 -3 -53 -5 -67 -3 -165 -39 -219 -80 -52 -40
-117 -135 -136 -199 -17 -58 -22 -196 -10 -262 40 -208 219 -343 443 -333 90
4 116 10 197 48 58 28 202 149 189 160 -2 3 -41 25 -87 51 l-83 47 -26 -31
c-52 -62 -146 -92 -245 -77 -47 8 -86 28 -120 64 -31 32 -69 116 -60 129 4 5
143 9 312 9 l305 0 -3 35 c-25 273 -129 404 -348 439 -30 4 -55 7 -56 5z m100
-192 c34 -21 49 -39 67 -81 28 -63 34 -61 -181 -61 l-195 0 7 23 c18 59 48 98
94 122 69 36 149 35 208 -3z"/>
<path d="M13195 8818 c-32 -4 -75 -13 -95 -19 -52 -17 -125 -65 -153 -102 -30
-40 -55 -114 -50 -147 2 -14 5 -38 7 -53 7 -47 49 -100 106 -134 47 -28 114
-48 244 -73 123 -24 144 -32 155 -63 12 -32 2 -55 -37 -85 -33 -25 -43 -27
-126 -27 -101 0 -160 20 -206 68 -29 30 -34 32 -52 15 -7 -7 -36 -31 -63 -53
-28 -21 -53 -44 -57 -49 -17 -24 132 -109 237 -136 71 -17 202 -20 272 -6 159
34 262 145 258 281 -3 121 -92 204 -246 230 -207 35 -252 48 -269 81 -33 61
30 114 135 114 76 0 149 -33 193 -85 l31 -38 68 67 68 67 -44 39 c-93 85 -236
126 -376 108z"/>
<path d="M10106 8813 c-1 -1 -17 -5 -35 -8 -50 -9 -92 -33 -132 -77 l-36 -40
1 54 1 53 -97 1 -97 1 0 -413 c0 -318 2 -414 12 -415 12 -1 152 -1 173 0 7 1
10 69 9 209 0 269 15 333 95 385 46 30 66 38 120 44 25 3 47 6 48 8 4 3 5 89
3 166 -1 34 -3 37 -32 35 -17 0 -31 -2 -33 -3z"/>
<path d="M8585 8792 c-3 -3 -5 -189 -5 -414 l0 -408 28 -1 c29 -1 152 -1 165
0 4 1 6 187 5 414 l-3 412 -92 1 c-51 1 -94 -1 -98 -4z"/>
<path d="M10050 7784 c-121 -32 -223 -106 -293 -212 -68 -104 -113 -258 -112
-384 0 -38 -4 -68 -8 -68 -5 0 -6 -3 -3 -8 2 -4 7 -39 11 -77 4 -39 11 -88 17
-110 6 -22 11 -44 13 -50 16 -71 85 -192 141 -248 55 -55 147 -112 197 -121
14 -2 32 -8 37 -11 19 -11 165 -13 221 -3 107 19 218 100 263 190 18 38 18 39
17 -74 0 -96 1 -97 69 -94 l35 1 0 328 0 327 -282 0 -283 0 0 -54 0 -54 228 1
227 0 -1 -59 c0 -50 -7 -103 -18 -149 -1 -5 -10 -27 -19 -49 -9 -21 -17 -42
-17 -46 0 -14 -120 -131 -129 -125 -5 3 -11 0 -13 -5 -6 -18 -110 -40 -178
-38 -151 4 -261 73 -330 209 -52 102 -71 194 -71 339 1 85 5 121 25 219 20 95
127 244 208 289 144 81 334 67 443 -32 36 -33 108 -163 99 -178 -10 -16 24 -7
73 20 l50 27 -31 58 c-68 127 -160 206 -280 238 -76 21 -231 22 -306 3z"/>
<path d="M8581 7142 l0 -629 57 1 57 2 2 524 c2 289 4 530 5 537 3 10 105
-133 168 -233 8 -13 47 -70 85 -126 39 -57 131 -193 205 -303 74 -110 137
-202 140 -205 3 -3 34 -49 68 -102 l64 -96 56 2 57 2 3 627 2 628 -57 -3 -58
-3 0 -470 c0 -258 2 -474 4 -479 6 -14 6 -106 0 -106 -4 0 -18 17 -32 38 -27
40 -121 175 -178 257 -63 89 -164 236 -174 253 -5 10 -13 19 -16 22 -3 3 -39
55 -81 115 -41 61 -116 169 -165 240 l-90 130 -61 3 -62 3 1 -629z"/>
<path d="M2748 6525 c-65 -17 -118 -30 -118 -29 0 2 -11 -1 -25 -6 -14 -5 -36
-12 -48 -14 -12 -2 -69 -16 -127 -31 -58 -15 -114 -28 -125 -31 -23 -4 -210
-50 -430 -104 -143 -36 -150 -39 -147 -61 10 -73 123 -456 189 -634 53 -145
93 -246 154 -390 31 -75 119 -255 123 -255 3 0 94 43 203 96 109 53 257 125
328 159 72 35 218 106 325 159 107 53 199 96 205 96 5 0 28 -35 50 -77 54
-104 184 -335 230 -409 38 -60 173 -261 187 -279 18 -22 174 -228 183 -241 7
-10 6 -17 -1 -22 -6 -4 -29 -21 -50 -39 -22 -17 -118 -95 -214 -173 -96 -78
-184 -149 -195 -158 -11 -9 -68 -55 -125 -102 -58 -47 -114 -92 -125 -102 -11
-9 -61 -50 -111 -90 l-92 -75 45 -54 c124 -152 258 -297 426 -463 l140 -139
54 59 c55 60 230 247 359 384 39 41 85 91 103 110 205 218 252 269 272 293
l24 29 -140 141 c-141 142 -178 182 -289 311 l-60 68 36 32 c20 17 100 84 179
148 359 292 566 461 584 476 11 9 32 27 48 39 l27 21 -23 29 c-149 179 -312
429 -443 678 -29 55 -57 101 -62 103 -6 2 -54 -19 -108 -46 -88 -44 -278 -137
-759 -371 l-140 -68 -16 31 c-9 17 -46 99 -82 181 -106 243 -184 461 -253 714
-19 69 -38 128 -42 131 -4 4 -60 -8 -124 -25z"/>
<path d="M11052 4871 c-78 -80 -171 -169 -205 -198 -34 -28 -71 -60 -82 -70
-124 -112 -385 -294 -602 -419 -65 -37 -120 -69 -122 -71 -4 -3 45 -102 116
-233 17 -30 53 -98 80 -150 28 -52 109 -205 181 -340 72 -135 134 -253 137
-262 5 -12 -21 -29 -127 -81 -221 -108 -579 -254 -691 -282 -29 -8 -34 -27
-17 -67 5 -13 55 -165 111 -338 186 -578 240 -740 247 -740 33 0 480 171 622
238 141 66 405 193 408 197 3 3 -34 75 -133 260 -18 33 -61 114 -95 180 -34
66 -79 152 -100 190 -20 39 -63 120 -95 180 -32 61 -73 139 -92 174 -19 35
-31 67 -26 71 12 12 255 150 264 150 4 0 9 4 11 8 4 10 105 72 118 72 6 0 10
4 10 8 0 4 15 16 33 26 99 57 384 273 567 430 112 96 470 450 470 465 0 5 -28
33 -62 62 -34 30 -66 59 -72 64 -6 6 -74 66 -151 135 -153 137 -212 190 -229
205 -6 6 -54 48 -106 95 -118 105 -168 150 -192 173 -10 9 -21 17 -25 16 -5
-1 -72 -67 -151 -148z"/>
<path d="M5164 4716 c-10 -13 -64 -72 -119 -131 -54 -58 -111 -119 -125 -134
-14 -15 -61 -66 -105 -113 -44 -47 -123 -131 -175 -188 -52 -56 -121 -130
-152 -164 -32 -33 -58 -64 -58 -68 0 -14 277 -248 445 -374 136 -103 519 -354
540 -354 2 0 27 -13 53 -30 59 -36 64 -36 78 -7 5 12 75 141 154 287 79 146
159 294 178 330 19 36 67 126 108 202 41 75 74 140 74 145 0 4 -39 30 -88 57
-141 80 -416 262 -468 311 -6 5 -23 19 -38 30 -16 11 -33 25 -40 30 -156 136
-227 195 -234 195 -4 0 -17 -11 -28 -24z"/>
<path d="M5876 2847 c-22 -50 -51 -117 -64 -147 -13 -30 -31 -71 -40 -90 -282
-636 -331 -755 -316 -766 24 -19 317 -133 489 -191 287 -98 604 -183 845 -227
14 -3 50 -10 80 -15 30 -6 66 -13 80 -16 13 -3 42 -7 65 -10 22 -4 54 -9 70
-11 41 -8 69 -11 145 -19 36 -4 73 -9 83 -11 10 -2 53 -6 95 -10 42 -3 88 -8
102 -10 187 -25 854 -24 1110 1 19 2 69 6 110 10 41 4 83 9 92 10 9 2 43 6 75
10 55 5 269 39 323 50 14 3 54 10 90 16 101 17 132 28 126 47 -6 20 -75 335
-82 372 -2 14 -11 57 -20 95 -9 39 -18 81 -20 95 -3 14 -7 33 -10 42 -3 10 -8
30 -10 45 -3 16 -23 111 -45 213 -23 102 -43 196 -46 210 -3 14 -6 32 -8 40
-2 8 -4 19 -4 23 -1 9 -47 5 -121 -12 -25 -5 -61 -13 -80 -16 -19 -3 -46 -8
-60 -10 -38 -7 -171 -25 -210 -30 -19 -2 -62 -6 -95 -10 -33 -3 -73 -8 -90
-10 -198 -23 -832 -23 -955 0 -8 2 -49 6 -90 10 -41 4 -82 8 -90 10 -9 2 -43
6 -75 10 -33 4 -67 9 -75 10 -8 1 -35 6 -60 10 -25 4 -54 9 -65 11 -11 3 -36
7 -55 10 -19 3 -102 21 -185 40 -293 67 -549 147 -838 263 -70 28 -128 51
-130 51 -1 0 -20 -42 -41 -93z"/>
</g>
</svg>
